<?xml version="1.0" encoding="UTF-8"?>
<svg aria-roledescription="flowchart-v2" role="graphics-document document" viewBox="-8 -8 1334.21875 691.71337890625" xmlns="http://www.w3.org/2000/svg" width="100%" id="graphSvg"><style>#graphSvg{font-family:Helvetica,Arial,sans-serif;font-size:16px;fill:#000000;}#graphSvg .error-icon{fill:#552222;}#graphSvg .error-text{fill:#552222;stroke:#552222;}#graphSvg .edge-thickness-normal{stroke-width:2px;}#graphSvg .edge-thickness-thick{stroke-width:3.5px;}#graphSvg .edge-pattern-solid{stroke-dasharray:0;}#graphSvg .edge-pattern-dashed{stroke-dasharray:3;}#graphSvg .edge-pattern-dotted{stroke-dasharray:2;}#graphSvg .marker{fill:#666;stroke:#666;}#graphSvg .marker.cross{stroke:#666;}#graphSvg svg{font-family:Helvetica,Arial,sans-serif;font-size:16px;}#graphSvg .label{font-family:Helvetica,Arial,sans-serif;color:#000000;}#graphSvg .cluster-label text{fill:#333;}#graphSvg .cluster-label span,#graphSvg p{color:#333;}#graphSvg .label text,#graphSvg span,#graphSvg p{fill:#000000;color:#000000;}#graphSvg .node rect,#graphSvg .node circle,#graphSvg .node ellipse,#graphSvg .node polygon,#graphSvg .node path{fill:#eee;stroke:#999;stroke-width:1px;}#graphSvg .flowchart-label text{text-anchor:middle;}#graphSvg .node .katex path{fill:#000;stroke:#000;stroke-width:1px;}#graphSvg .node .label{text-align:center;}#graphSvg .node.clickable{cursor:pointer;}#graphSvg .arrowheadPath{fill:#333333;}#graphSvg .edgePath .path{stroke:#666;stroke-width:2.0px;}#graphSvg .flowchart-link{stroke:#666;fill:none;}#graphSvg .edgeLabel{background-color:white;text-align:center;}#graphSvg .edgeLabel rect{opacity:0.5;background-color:white;fill:white;}#graphSvg .labelBkg{background-color:rgba(255, 255, 255, 0.5);}#graphSvg .cluster rect{fill:hsl(0, 0%, 98.9215686275%);stroke:#707070;stroke-width:1px;}#graphSvg .cluster text{fill:#333;}#graphSvg .cluster span,#graphSvg p{color:#333;}#graphSvg div.mermaidTooltip{position:absolute;text-align:center;max-width:200px;padding:2px;font-family:Helvetica,Arial,sans-serif;font-size:12px;background:hsl(-160, 0%, 93.3333333333%);border:1px solid #707070;border-radius:2px;pointer-events:none;z-index:100;}#graphSvg .flowchartTitleText{text-anchor:middle;font-size:18px;fill:#000000;}#graphSvg :root{--mermaid-font-family:Helvetica,Arial,sans-serif;}</style><g><marker orient="auto" markerHeight="12" markerWidth="12" markerUnits="userSpaceOnUse" refY="5" refX="6" viewBox="0 0 10 10" class="marker flowchart" id="graphSvg_flowchart-pointEnd"><path style="stroke-width: 1; stroke-dasharray: 1, 0;" class="arrowMarkerPath" d="M 0 0 L 10 5 L 0 10 z"></path></marker><marker orient="auto" markerHeight="12" markerWidth="12" markerUnits="userSpaceOnUse" refY="5" refX="4.5" viewBox="0 0 10 10" class="marker flowchart" id="graphSvg_flowchart-pointStart"><path style="stroke-width: 1; stroke-dasharray: 1, 0;" class="arrowMarkerPath" d="M 0 5 L 10 10 L 10 0 z"></path></marker><marker orient="auto" markerHeight="11" markerWidth="11" markerUnits="userSpaceOnUse" refY="5" refX="11" viewBox="0 0 10 10" class="marker flowchart" id="graphSvg_flowchart-circleEnd"><circle style="stroke-width: 1; stroke-dasharray: 1, 0;" class="arrowMarkerPath" r="5" cy="5" cx="5"></circle></marker><marker orient="auto" markerHeight="11" markerWidth="11" markerUnits="userSpaceOnUse" refY="5" refX="-1" viewBox="0 0 10 10" class="marker flowchart" id="graphSvg_flowchart-circleStart"><circle style="stroke-width: 1; stroke-dasharray: 1, 0;" class="arrowMarkerPath" r="5" cy="5" cx="5"></circle></marker><marker orient="auto" markerHeight="11" markerWidth="11" markerUnits="userSpaceOnUse" refY="5.2" refX="12" viewBox="0 0 11 11" class="marker cross flowchart" id="graphSvg_flowchart-crossEnd"><path style="stroke-width: 2; stroke-dasharray: 1, 0;" class="arrowMarkerPath" d="M 1,1 l 9,9 M 10,1 l -9,9"></path></marker><marker orient="auto" markerHeight="11" markerWidth="11" markerUnits="userSpaceOnUse" refY="5.2" refX="-1" viewBox="0 0 11 11" class="marker cross flowchart" id="graphSvg_flowchart-crossStart"><path style="stroke-width: 2; stroke-dasharray: 1, 0;" class="arrowMarkerPath" d="M 1,1 l 9,9 M 10,1 l -9,9"></path></marker><g class="root"><g class="clusters"><g id="data" class="cluster default flowchart-label"><rect height="443.213342666626" width="199.09375" y="232.5" x="1119.125" ry="0" rx="0" style=""></rect><g transform="translate(1201.7734375, 232.5)" class="cluster-label"><foreignObject height="18" width="33.796875"><div style="display: inline-block; white-space: nowrap;" xmlns="http://www.w3.org/1999/xhtml"><span class="nodeLabel">Data</span></div></foreignObject></g></g><g id="messaging" class="cluster default flowchart-label"><rect height="129.5" width="199.09375" y="0" x="1119.125" ry="0" rx="0" style=""></rect><g transform="translate(1179.984375, 0)" class="cluster-label"><foreignObject height="18" width="77.375"><div style="display: inline-block; white-space: nowrap;" xmlns="http://www.w3.org/1999/xhtml"><span class="nodeLabel">Messaging</span></div></foreignObject></g></g><g id="services" class="cluster default flowchart-label"><rect height="670.0142478942871" width="996.203125" y="0" x="0" ry="0" rx="0" style=""></rect><g transform="translate(467.421875, 0)" class="cluster-label"><foreignObject height="18" width="61.359375"><div style="display: inline-block; white-space: nowrap;" xmlns="http://www.w3.org/1999/xhtml"><span class="nodeLabel">Services</span></div></foreignObject></g></g></g><g class="edgePaths"><path marker-end="url(#graphSvg_flowchart-pointEnd)" style="fill:none;" class="edge-thickness-normal edge-pattern-solid flowchart-link LS-n_apim LE-n_gateway" id="L-n_apim-n_gateway-0" d="M206.766,484.525L216.777,484.441C226.789,484.358,246.813,484.191,266.119,484.184C285.426,484.177,304.016,484.329,313.311,484.405L322.606,484.481"></path><path marker-end="url(#graphSvg_flowchart-pointEnd)" style="fill:none;" class="edge-thickness-normal edge-pattern-solid flowchart-link LS-n_gateway LE-n_quote_api" id="L-n_gateway-n_quote_api-0" d="M456.078,484.525L465.423,484.441C474.768,484.358,493.458,484.191,511.348,484.108C529.239,484.025,546.329,484.025,554.874,484.025L563.419,484.025"></path><path marker-end="url(#graphSvg_flowchart-pointEnd)" style="fill:none;" class="edge-thickness-normal edge-pattern-solid flowchart-link LS-n_policy_worker LE-n_policy_admin" id="L-n_policy_worker-n_policy_admin-0" d="M971.203,179.908L975.37,180.09C979.536,180.272,987.87,180.636,1002.28,180.818C1016.69,181,1037.177,181,1057.664,181C1078.151,181,1098.638,181,1115.938,181.074C1133.239,181.148,1147.352,181.296,1154.409,181.37L1161.466,181.444"></path><path marker-end="url(#graphSvg_flowchart-pointEnd)" style="fill:none;" class="edge-thickness-normal edge-pattern-solid flowchart-link LS-n_policy_worker LE-n_policy_db" id="L-n_policy_worker-n_policy_db-0" d="M917.105,202.25L930.288,220.682C943.471,239.114,969.837,275.978,993.264,294.41C1016.69,312.842,1037.177,312.842,1057.664,312.842C1078.151,312.842,1098.638,312.842,1112.885,312.842C1127.132,312.842,1135.139,312.842,1139.142,312.842L1143.145,312.842"></path><path marker-end="url(#graphSvg_flowchart-pointEnd)" style="fill:none;stroke-width:2px;stroke-dasharray:3;" class="edge-thickness-normal edge-pattern-dotted flowchart-link LS-n_policy_worker LE-n_quote_bound" id="L-n_policy_worker-n_quote_bound-0" d="M925.92,151.25L937.634,140.208C949.347,129.167,972.775,107.083,994.733,96.042C1016.69,85,1037.177,85,1057.664,85C1078.151,85,1098.638,85,1112.967,84.252C1127.296,83.503,1135.467,82.006,1139.553,81.258L1143.638,80.51"></path><path marker-end="url(#graphSvg_flowchart-pointEnd)" style="fill:none;stroke-width:2px;stroke-dasharray:3;" class="edge-thickness-normal edge-pattern-dotted flowchart-link LS-n_quote_api LE-n_quote_bound" id="L-n_quote_api-n_quote_bound-0" d="M648.633,458.525L668.854,390.479C689.075,322.433,729.518,186.342,771.224,118.296C812.93,50.25,855.898,50.25,893.605,50.25C931.313,50.25,963.758,50.25,990.224,50.25C1016.69,50.25,1037.177,50.25,1057.664,50.25C1078.151,50.25,1098.638,50.25,1112.964,50.903C1127.289,51.557,1135.454,52.863,1139.536,53.516L1143.618,54.17"></path><path marker-end="url(#graphSvg_flowchart-pointEnd)" style="fill:none;" class="edge-thickness-normal edge-pattern-solid flowchart-link LS-n_quote_api LE-n_quote_db" id="L-n_quote_api-n_quote_db-0" d="M713.391,466.909L722.819,464.679C732.247,462.448,751.104,457.986,782.017,455.755C812.93,453.525,855.898,453.525,893.605,453.525C931.313,453.525,963.758,453.525,990.224,453.525C1016.69,453.525,1037.177,453.525,1057.664,453.525C1078.151,453.525,1098.638,453.525,1112.885,453.525C1127.132,453.525,1135.139,453.525,1139.142,453.525L1143.145,453.525"></path><path marker-end="url(#graphSvg_flowchart-pointEnd)" style="fill:none;" class="edge-thickness-normal edge-pattern-solid flowchart-link LS-n_quote_api LE-n_rating_engine" id="L-n_quote_api-n_rating_engine-0" d="M687.601,509.525L701.328,517.045C715.054,524.564,742.508,539.604,764.779,547.124C787.051,554.644,804.141,554.644,812.686,554.644L821.231,554.644"></path><path marker-end="url(#graphSvg_flowchart-pointEnd)" style="fill:none;" class="edge-thickness-normal edge-pattern-solid flowchart-link LS-n_quote_api LE-n_redis" id="L-n_quote_api-n_redis-0" d="M664.328,509.525L681.933,528.814C699.539,548.104,734.75,586.684,773.84,605.974C812.93,625.264,855.898,625.264,893.605,625.264C931.313,625.264,963.758,625.264,990.224,625.264C1016.69,625.264,1037.177,625.264,1057.664,625.264C1078.151,625.264,1098.638,625.264,1112.204,624.246C1125.769,623.229,1132.413,621.193,1135.735,620.175L1139.058,619.157"></path><path marker-end="url(#graphSvg_flowchart-pointEnd)" style="fill:none;" class="edge-thickness-normal edge-pattern-solid flowchart-link LS-n_rating_engine LE-n_redis" id="L-n_rating_engine-n_redis-0" d="M971.203,554.644L975.37,554.644C979.536,554.644,987.87,554.644,1002.28,554.644C1016.69,554.644,1037.177,554.644,1057.664,554.644C1078.151,554.644,1098.638,554.644,1112.229,555.993C1125.82,557.343,1132.514,560.041,1135.862,561.39L1139.209,562.739"></path></g><g class="edgeLabels"><g transform="translate(266.8359375, 484.02454376220703)" class="edgeLabel"><g transform="translate(-35.5703125, -9)" class="label"><foreignObject height="18" width="71.140625"><div style="display: inline-block; white-space: nowrap;" xmlns="http://www.w3.org/1999/xhtml"><span class="edgeLabel">calls https</span></div></foreignObject></g></g><g transform="translate(512.1484375, 484.02454376220703)" class="edgeLabel"><g transform="translate(-31.5703125, -9)" class="label"><foreignObject height="18" width="63.140625"><div style="display: inline-block; white-space: nowrap;" xmlns="http://www.w3.org/1999/xhtml"><span class="edgeLabel">calls http</span></div></foreignObject></g></g><g transform="translate(1057.6640625, 181)" class="edgeLabel"><g transform="translate(-35.5703125, -9)" class="label"><foreignObject height="18" width="71.140625"><div style="display: inline-block; white-space: nowrap;" xmlns="http://www.w3.org/1999/xhtml"><span class="edgeLabel">calls https</span></div></foreignObject></g></g><g transform="translate(1057.6640625, 312.84151458740234)" class="edgeLabel"><g transform="translate(-21.7890625, -9)" class="label"><foreignObject height="18" width="43.578125"><div style="display: inline-block; white-space: nowrap;" xmlns="http://www.w3.org/1999/xhtml"><span class="edgeLabel">stores</span></div></foreignObject></g></g><g transform="translate(1057.6640625, 85)" class="edgeLabel"><g transform="translate(-36.4609375, -9)" class="label"><foreignObject height="18" width="72.921875"><div style="display: inline-block; white-space: nowrap;" xmlns="http://www.w3.org/1999/xhtml"><span class="edgeLabel">consumes</span></div></foreignObject></g></g><g transform="translate(898.8671875, 50.25)" class="edgeLabel"><g transform="translate(-33.8046875, -9)" class="label"><foreignObject height="18" width="67.609375"><div style="display: inline-block; white-space: nowrap;" xmlns="http://www.w3.org/1999/xhtml"><span class="edgeLabel">publishes</span></div></foreignObject></g></g><g transform="translate(898.8671875, 453.52454376220703)" class="edgeLabel"><g transform="translate(-21.7890625, -9)" class="label"><foreignObject height="18" width="43.578125"><div style="display: inline-block; white-space: nowrap;" xmlns="http://www.w3.org/1999/xhtml"><span class="edgeLabel">stores</span></div></foreignObject></g></g><g transform="translate(769.9609375, 554.6443958282471)" class="edgeLabel"><g transform="translate(-31.5703125, -9)" class="label"><foreignObject height="18" width="63.140625"><div style="display: inline-block; white-space: nowrap;" xmlns="http://www.w3.org/1999/xhtml"><span class="edgeLabel">calls http</span></div></foreignObject></g></g><g transform="translate(898.8671875, 625.2642478942871)" class="edgeLabel"><g transform="translate(-21.7890625, -9)" class="label"><foreignObject height="18" width="43.578125"><div style="display: inline-block; white-space: nowrap;" xmlns="http://www.w3.org/1999/xhtml"><span class="edgeLabel">stores</span></div></foreignObject></g></g><g transform="translate(1057.6640625, 554.6443958282471)" class="edgeLabel"><g transform="translate(-21.7890625, -9)" class="label"><foreignObject height="18" width="43.578125"><div style="display: inline-block; white-space: nowrap;" xmlns="http://www.w3.org/1999/xhtml"><span class="edgeLabel">stores</span></div></foreignObject></g></g></g><g class="nodes"><g transform="translate(1218.671875, 312.84151458740234)" data-id="n_policy_db" data-node="true" id="flowchart-n_policy_db-6" class="node default default flowchart-label"><path transform="translate(-70.2265625,-45.34151509800459)" d="M 0,13.227676732003061 a 70.2265625,13.227676732003061 0,0,0 140.453125 0 a 70.2265625,13.227676732003061 0,0,0 -140.453125 0 l 0,64.22767673200306 a 70.2265625,13.227676732003061 0,0,0 140.453125 0 l 0,-64.22767673200306" style=""></path><g transform="translate(-62.7265625, -18)" style="" class="label"><rect></rect><foreignObject height="36" width="125.453125"><div style="display: inline-block; white-space: nowrap;" xmlns="http://www.w3.org/1999/xhtml"><span class="nodeLabel">policy-db<br><small>Azure SQL Database</small></span></div></foreignObject></g></g><g transform="translate(1218.671875, 453.52454376220703)" data-id="n_quote_db" data-node="true" id="flowchart-n_quote_db-7" class="node default default flowchart-label"><path transform="translate(-70.2265625,-45.34151509800459)" d="M 0,13.227676732003061 a 70.2265625,13.227676732003061 0,0,0 140.453125 0 a 70.2265625,13.227676732003061 0,0,0 -140.453125 0 l 0,64.22767673200306 a 70.2265625,13.227676732003061 0,0,0 140.453125 0 l 0,-64.22767673200306" style=""></path><g transform="translate(-62.7265625, -18)" style="" class="label"><rect></rect><foreignObject height="36" width="125.453125"><div style="display: inline-block; white-space: nowrap;" xmlns="http://www.w3.org/1999/xhtml"><span class="nodeLabel">quote-db<br><small>Azure SQL Database</small></span></div></foreignObject></g></g><g transform="translate(1218.671875, 594.7642478942871)" data-id="n_redis" data-node="true" id="flowchart-n_redis-8" class="node default default flowchart-label"><path transform="translate(-74.546875,-45.89818720784403)" d="M 0,13.59879147189602 a 74.546875,13.59879147189602 0,0,0 149.09375 0 a 74.546875,13.59879147189602 0,0,0 -149.09375 0 l 0,64.59879147189602 a 74.546875,13.59879147189602 0,0,0 149.09375 0 l 0,-64.59879147189602" style=""></path><g transform="translate(-67.046875, -18)" style="" class="label"><rect></rect><foreignObject height="36" width="134.09375"><div style="display: inline-block; white-space: nowrap;" xmlns="http://www.w3.org/1999/xhtml"><span class="nodeLabel">redis<br><small>Azure Cache for Redis</small></span></div></foreignObject></g></g><g transform="translate(1218.671875, 64.75)" data-id="n_quote_bound" data-node="true" id="flowchart-n_quote_bound-5" class="node default default flowchart-label"><polygon style="" transform="translate(-62.3203125,25.5)" class="label-container" points="0,0 124.640625,0 124.640625,-51 0,-51 0,0 -8,0 132.640625,0 132.640625,-51 -8,-51 -8,0"></polygon><g transform="translate(-54.8203125, -18)" style="" class="label"><rect></rect><foreignObject height="36" width="109.640625"><div style="display: inline-block; white-space: nowrap;" xmlns="http://www.w3.org/1999/xhtml"><span class="nodeLabel">quote-bound<br><small>Azure Service Bus</small></span></div></foreignObject></g></g><g transform="translate(115.6328125, 484.02454376220703)" data-id="n_apim" data-node="true" id="flowchart-n_apim-0" class="node default default flowchart-label"><polygon style="" transform="translate(-90.6328125,25.5)" class="label-container" points="12.75,0 168.515625,0 181.265625,-25.5 168.515625,-51 12.75,-51 0,-25.5"></polygon><g transform="translate(-70.3828125, -18)" style="" class="label"><rect></rect><foreignObject height="36" width="140.765625"><div style="display: inline-block; white-space: nowrap;" xmlns="http://www.w3.org/1999/xhtml"><span class="nodeLabel">apim<br><small>Azure API Management</small></span></div></foreignObject></g></g><g transform="translate(391.4921875, 484.02454376220703)" data-id="n_gateway" data-node="true" id="flowchart-n_gateway-1" class="node default default flowchart-label"><polygon style="" transform="translate(-64.0859375,25.5)" class="label-container" points="12.75,0 115.421875,0 128.171875,-25.5 115.421875,-51 12.75,-51 0,-25.5"></polygon><g transform="translate(-43.8359375, -18)" style="" class="label"><rect></rect><foreignObject height="36" width="87.671875"><div style="display: inline-block; white-space: nowrap;" xmlns="http://www.w3.org/1999/xhtml"><span class="nodeLabel">gateway<br><small>ASP.NET Core</small></span></div></foreignObject></g></g><g transform="translate(898.8671875, 176.75)" data-id="n_policy_worker" data-node="true" id="flowchart-n_policy_worker-2" class="node default default flowchart-label"><rect height="51" width="144.671875" y="-25.5" x="-72.3359375" ry="0" rx="0" style="" class="basic label-container"></rect><g transform="translate(-64.8359375, -18)" style="" class="label"><rect></rect><foreignObject height="36" width="129.671875"><div style="display: inline-block; white-space: nowrap;" xmlns="http://www.w3.org/1999/xhtml"><span class="nodeLabel">policy-worker<br><small>Azure Container Apps</small></span></div></foreignObject></g></g><g transform="translate(641.0546875, 484.02454376220703)" data-id="n_quote_api" data-node="true" id="flowchart-n_quote_api-3" class="node default default flowchart-label"><rect height="51" width="144.671875" y="-25.5" x="-72.3359375" ry="0" rx="0" style="" class="basic label-container"></rect><g transform="translate(-64.8359375, -18)" style="" class="label"><rect></rect><foreignObject height="36" width="129.671875"><div style="display: inline-block; white-space: nowrap;" xmlns="http://www.w3.org/1999/xhtml"><span class="nodeLabel">quote-api<br><small>Azure Container Apps</small></span></div></foreignObject></g></g><g transform="translate(898.8671875, 554.6443958282471)" data-id="n_rating_engine" data-node="true" id="flowchart-n_rating_engine-4" class="node default default flowchart-label"><rect height="51" width="144.671875" y="-25.5" x="-72.3359375" ry="0" rx="0" style="" class="basic label-container"></rect><g transform="translate(-64.8359375, -18)" style="" class="label"><rect></rect><foreignObject height="36" width="129.671875"><div style="display: inline-block; white-space: nowrap;" xmlns="http://www.w3.org/1999/xhtml"><span class="nodeLabel">rating-engine<br><small>Azure Container Apps</small></span></div></foreignObject></g></g><g transform="translate(1218.671875, 181)" data-id="n_policy_admin" data-node="true" id="flowchart-n_policy_admin-9" class="node default default flowchart-label"><polygon style="" transform="translate(-52.40625,16.5)" class="label-container" points="-16.5,0 104.8125,0 104.8125,-33 -16.5,-33 0,-16.5"></polygon><g transform="translate(-44.90625, -9)" style="" class="label"><rect></rect><foreignObject height="18" width="89.8125"><div style="display: inline-block; white-space: nowrap;" xmlns="http://www.w3.org/1999/xhtml"><span class="nodeLabel">policy-admin</span></div></foreignObject></g></g></g></g></g></svg>
